<?xml version="1.0" encoding="iso-8859-1"?>
<!-- Generator: Adobe Illustrator 19.0.0, SVG Export Plug-In . SVG Version: 6.00 Build 0)  -->
<svg version="1.1" id="Layer_1" xmlns="http://www.w3.org/2000/svg" xmlns:xlink="http://www.w3.org/1999/xlink" x="0px" y="0px"
	 viewBox="0 0 286.054 286.054" style="enable-background:new 0 0 286.054 286.054;" xml:space="preserve">
<g>
	<path style="fill:#3DB39E;" d="M35.757,35.757v214.54h214.54V35.757H35.757z M232.419,232.419H53.635V53.635h178.784
		L232.419,232.419L232.419,232.419z"/>
	<path style="fill:#2595BD;" d="M0,286.054h98.331v-98.331H0V286.054z M17.878,205.601h62.574v62.574H17.878V205.601z
		 M187.723,286.054h98.331v-98.331h-98.331L187.723,286.054L187.723,286.054z M205.601,205.601h62.574v62.574h-62.574
		L205.601,205.601L205.601,205.601z M0,98.331h98.331V0H0V98.331z M17.878,17.878h62.574v62.574H17.878V17.878z M187.723,0v98.331
		h98.331V0H187.723z M268.176,80.453h-62.574V17.878h62.574V80.453z"/>
</g>
<g>
</g>
<g>
</g>
<g>
</g>
<g>
</g>
<g>
</g>
<g>
</g>
<g>
</g>
<g>
</g>
<g>
</g>
<g>
</g>
<g>
</g>
<g>
</g>
<g>
</g>
<g>
</g>
<g>
</g>
</svg>
