<?xml version="1.0" encoding="iso-8859-1"?>
<!-- Generator: Adobe Illustrator 19.0.0, SVG Export Plug-In . SVG Version: 6.00 Build 0)  -->
<svg version="1.1" id="Layer_1" xmlns="http://www.w3.org/2000/svg" xmlns:xlink="http://www.w3.org/1999/xlink" x="0px" y="0px"
	 viewBox="0 0 286.065 286.065" style="enable-background:new 0 0 286.065 286.065;" xml:space="preserve">
<g>
	<path style="fill:#3DB39E;" d="M244.169,41.901c-55.861-55.87-146.415-55.852-202.267,0c-55.87,55.861-55.87,146.406,0,202.267
		c55.852,55.852,146.415,55.861,202.267,0C300.03,188.316,300.03,97.762,244.169,41.901z M225.2,225.199
		c-45.393,45.393-118.936,45.402-164.338,0.009c-45.384-45.384-45.384-118.963,0-164.347c45.393-45.393,118.954-45.393,164.347,0
		C270.611,106.263,270.594,179.806,225.2,225.199z"/>
	<path style="fill:#3DB39E;" d="M112.826,185.884l17.583-17.574l31.609,31.6c3.504,3.504,9.127,3.513,12.64,0l25.28-25.28
		c3.495-3.495,3.504-9.145,0-12.64l-31.6-31.609l17.565-17.557c6.865-6.865,5.086-14.24-3.897-16.386l-72.684,0.42
		c-9.011-2.154-14.616,3.459-12.47,12.461l-0.402,72.676C98.577,190.997,105.952,192.758,112.826,185.884z"/>
</g>
<g>
</g>
<g>
</g>
<g>
</g>
<g>
</g>
<g>
</g>
<g>
</g>
<g>
</g>
<g>
</g>
<g>
</g>
<g>
</g>
<g>
</g>
<g>
</g>
<g>
</g>
<g>
</g>
<g>
</g>
</svg>
