<?xml version="1.0" encoding="iso-8859-1"?>
<!-- Generator: Adobe Illustrator 19.0.0, SVG Export Plug-In . SVG Version: 6.00 Build 0)  -->
<svg version="1.1" id="Layer_1" xmlns="http://www.w3.org/2000/svg" xmlns:xlink="http://www.w3.org/1999/xlink" x="0px" y="0px"
	 viewBox="0 0 286.062 286.062" style="enable-background:new 0 0 286.062 286.062;" xml:space="preserve">
<g>
	<path style="fill:#3DB39E;" d="M244.159,41.896c-55.852-55.852-146.406-55.861-202.267,0c-55.852,55.852-55.861,146.415,0,202.267
		c55.861,55.87,146.415,55.852,202.267,0C300.029,188.302,300.029,97.757,244.159,41.896z M225.199,225.203
		c-45.384,45.384-118.954,45.393-164.347,0S15.477,106.258,60.87,60.874c45.393-45.393,118.945-45.411,164.338-0.009
		C270.592,106.24,270.592,179.818,225.199,225.203z"/>
	<path style="fill:#3DB39E;" d="M173.245,100.17l-17.583,17.583l-31.6-31.609c-3.495-3.495-9.136-3.504-12.64,0l-25.289,25.289
		c-3.486,3.486-3.495,9.145,0,12.64l31.609,31.609l-17.557,17.566c-6.865,6.865-5.095,14.231,3.889,16.377l72.693-0.42
		c9.002,2.154,14.616-3.459,12.461-12.47l0.411-72.676C187.494,95.066,180.11,93.296,173.245,100.17z"/>
</g>
<g>
</g>
<g>
</g>
<g>
</g>
<g>
</g>
<g>
</g>
<g>
</g>
<g>
</g>
<g>
</g>
<g>
</g>
<g>
</g>
<g>
</g>
<g>
</g>
<g>
</g>
<g>
</g>
<g>
</g>
</svg>
