<?xml version="1.0" encoding="iso-8859-1"?>
<!-- Generator: Adobe Illustrator 19.0.0, SVG Export Plug-In . SVG Version: 6.00 Build 0)  -->
<svg version="1.1" id="Layer_1" xmlns="http://www.w3.org/2000/svg" xmlns:xlink="http://www.w3.org/1999/xlink" x="0px" y="0px"
	 viewBox="0 0 286.062 286.062" style="enable-background:new 0 0 286.062 286.062;" xml:space="preserve">
<g>
	<path style="fill:#3DB39E;" d="M244.161,41.903c-55.861-55.87-146.406-55.87-202.267,0c-55.852,55.852-55.861,146.415,0,202.267
		c55.852,55.852,146.415,55.861,202.267,0C300.031,188.309,300.022,97.754,244.161,41.903z M225.201,225.21
		c-45.393,45.393-118.945,45.375-164.329-0.009c-45.393-45.402-45.411-118.936-0.009-164.338
		c45.384-45.384,118.963-45.384,164.347,0C270.594,106.256,270.603,179.816,225.201,225.21z"/>
	<path style="fill:#3DB39E;" d="M100.178,112.817l17.583,17.583l-31.609,31.609c-3.495,3.495-3.504,9.127,0,12.64l25.289,25.28
		c3.486,3.495,9.145,3.504,12.64,0l31.609-31.6l17.566,17.565c6.865,6.865,14.24,5.086,16.377-3.897l-0.42-72.684
		c2.154-9.011-3.459-14.616-12.47-12.47l-72.676-0.402C95.073,98.577,93.303,105.952,100.178,112.817z"/>
</g>
<g>
</g>
<g>
</g>
<g>
</g>
<g>
</g>
<g>
</g>
<g>
</g>
<g>
</g>
<g>
</g>
<g>
</g>
<g>
</g>
<g>
</g>
<g>
</g>
<g>
</g>
<g>
</g>
<g>
</g>
</svg>
