<?xml version="1.0" encoding="iso-8859-1"?>
<!-- Generator: Adobe Illustrator 19.0.0, SVG Export Plug-In . SVG Version: 6.00 Build 0)  -->
<svg version="1.1" id="Layer_1" xmlns="http://www.w3.org/2000/svg" xmlns:xlink="http://www.w3.org/1999/xlink" x="0px" y="0px"
	 viewBox="0 0 286.062 286.062" style="enable-background:new 0 0 286.062 286.062;" xml:space="preserve">
<g>
	<path style="fill:#3DB39E;" d="M244.164,41.892c-55.852-55.852-146.406-55.861-202.267,0c-55.87,55.861-55.852,146.415,0,202.267
		c55.861,55.87,146.406,55.87,202.267,0C300.025,188.307,300.025,97.753,244.164,41.892z M225.204,225.199
		c-45.384,45.384-118.963,45.384-164.347,0c-45.393-45.384-45.393-118.954,0-164.347c45.402-45.402,118.945-45.375,164.338,0.009
		C270.597,106.263,270.606,179.806,225.204,225.199z"/>
	<path style="fill:#3DB39E;" d="M185.89,173.236l-17.574-17.583l31.6-31.6c3.504-3.495,3.513-9.136,0-12.64l-25.28-25.289
		c-3.495-3.486-9.145-3.495-12.64,0l-31.609,31.609l-17.557-17.557c-6.865-6.865-14.24-5.095-16.386,3.889l0.42,72.693
		c-2.154,9.002,3.459,14.616,12.461,12.461l72.676,0.411C190.994,187.485,192.755,180.11,185.89,173.236z"/>
</g>
<g>
</g>
<g>
</g>
<g>
</g>
<g>
</g>
<g>
</g>
<g>
</g>
<g>
</g>
<g>
</g>
<g>
</g>
<g>
</g>
<g>
</g>
<g>
</g>
<g>
</g>
<g>
</g>
<g>
</g>
</svg>
