<?xml version="1.0" encoding="iso-8859-1"?>
<!-- Generator: Adobe Illustrator 19.0.0, SVG Export Plug-In . SVG Version: 6.00 Build 0)  -->
<svg version="1.1" id="Layer_1" xmlns="http://www.w3.org/2000/svg" xmlns:xlink="http://www.w3.org/1999/xlink" x="0px" y="0px"
	 viewBox="0 0 286.053 286.053" style="enable-background:new 0 0 286.053 286.053;" xml:space="preserve">
<g>
	<path style="fill:#CCD0D2;" d="M268.176,107.269h-8.939V80.452c0-9.869-8.009-17.878-17.878-17.878H17.878
		C8.001,62.573,0,70.583,0,80.452v125.149c0,9.878,8.01,17.878,17.878,17.878h223.48c9.869,0,17.878-8.001,17.878-17.878v-26.818
		h8.939c9.869,0,17.878-8.001,17.878-17.878v-35.757C286.054,115.288,278.044,107.269,268.176,107.269z M232.419,187.722
		c0,4.943-3.996,8.939-8.939,8.939H35.757c-4.934,0-8.939-3.996-8.939-8.939V98.33c0-4.934,4.005-8.939,8.939-8.939H223.48
		c4.943,0,8.939,4.005,8.939,8.939L232.419,187.722L232.419,187.722z"/>
	<path style="fill:#3BB39D;" d="M80.444,107.269H53.626c-4.934,0-8.939,4.005-8.939,8.939v53.635c0,4.943,4.005,8.939,8.939,8.939
		h26.818c4.943,0,8.939-3.996,8.939-8.939v-53.635C89.383,111.292,85.387,107.269,80.444,107.269z M143.018,107.269H116.2
		c-4.934,0-8.939,4.005-8.939,8.939v53.635c0,4.943,4.005,8.939,8.939,8.939h26.818c4.952,0,8.948-3.996,8.948-8.939v-53.635
		C151.966,111.292,147.97,107.269,143.018,107.269z M205.601,107.269h-26.818c-4.943,0-8.939,4.005-8.939,8.939v53.635
		c0,4.943,3.996,8.939,8.939,8.939h26.818c4.934,0,8.939-3.996,8.939-8.939v-53.635C214.54,111.292,210.536,107.269,205.601,107.269
		z"/>
</g>
<g>
</g>
<g>
</g>
<g>
</g>
<g>
</g>
<g>
</g>
<g>
</g>
<g>
</g>
<g>
</g>
<g>
</g>
<g>
</g>
<g>
</g>
<g>
</g>
<g>
</g>
<g>
</g>
<g>
</g>
</svg>
