<?xml version="1.0" encoding="iso-8859-1"?>
<!-- Generator: Adobe Illustrator 19.0.0, SVG Export Plug-In . SVG Version: 6.00 Build 0)  -->
<svg version="1.1" id="Layer_1" xmlns="http://www.w3.org/2000/svg" xmlns:xlink="http://www.w3.org/1999/xlink" x="0px" y="0px"
	 viewBox="0 0 286.052 286.052" style="enable-background:new 0 0 286.052 286.052;" xml:space="preserve">
<g>
	<path style="fill:#CCD0D2;" d="M205.601,117.057l-46.546-0.527l27.729-53.948h-72.908l-33.424,97.026h45.036l-21.025,63.87
		C104.463,223.478,205.601,117.057,205.601,117.057z"/>
	<path style="fill:#CCD0D2;" d="M268.176,107.268h-8.939V80.451c0-9.869-8.009-17.878-17.878-17.878H17.878
		C8.001,62.572,0,70.582,0,80.451V205.6c0,9.878,8.01,17.878,17.878,17.878h77.646l8.832-26.818H35.757
		c-4.934,0-8.939-3.996-8.939-8.939V98.329c0-4.934,4.005-8.939,8.939-8.939h59.946l9.234-26.809h90.786L181.948,89.39h41.531
		c4.943,0,8.939,4.005,8.939,8.939v89.392c0,4.943-3.996,8.939-8.939,8.939h-84.591l-25.486,26.818h127.955
		c9.869,0,17.878-8.001,17.878-17.878v-26.818h8.939c9.869,0,17.878-8.001,17.878-17.878v-35.757
		C286.054,115.278,278.044,107.268,268.176,107.268z"/>
</g>
<g>
</g>
<g>
</g>
<g>
</g>
<g>
</g>
<g>
</g>
<g>
</g>
<g>
</g>
<g>
</g>
<g>
</g>
<g>
</g>
<g>
</g>
<g>
</g>
<g>
</g>
<g>
</g>
<g>
</g>
</svg>
