<?xml version="1.0" encoding="iso-8859-1"?>
<!-- Generator: Adobe Illustrator 19.0.0, SVG Export Plug-In . SVG Version: 6.00 Build 0)  -->
<svg version="1.1" id="Layer_1" xmlns="http://www.w3.org/2000/svg" xmlns:xlink="http://www.w3.org/1999/xlink" x="0px" y="0px"
	 viewBox="0 0 286.019 286.019" style="enable-background:new 0 0 286.019 286.019;" xml:space="preserve">
<g>
	<path style="fill:#2394BC;" d="M143.03,286.019c-1.958,0-3.915-0.402-5.766-1.243c-5.095-2.306-8.385-7.402-8.385-13.078v-96.579
		l-47.118,42.882c-5.802,5.292-14.75,4.818-19.979-1.064c-5.229-5.864-4.756-14.911,1.055-20.203l59.034-53.725L62.819,89.285
		c-5.802-5.292-6.275-14.33-1.046-20.203s14.178-6.338,19.97-1.073l47.118,42.881V14.303c0-5.65,3.299-10.763,8.385-13.069
		c5.095-2.297,11.067-1.332,15.214,2.431l70.736,64.353c2.995,2.718,4.684,6.588,4.684,10.638c0,4.058-1.689,7.92-4.666,10.629
		l-59.052,53.724l59.043,53.724c2.977,2.709,4.675,6.579,4.675,10.629s-1.698,7.911-4.675,10.62l-70.736,64.371
		C149.842,284.74,146.454,286.019,143.03,286.019z M156.332,175.119v64.496l36.284-32.244L156.332,175.119z M156.332,46.395v64.487
		l36.284-32.235C192.616,78.648,156.332,46.395,156.332,46.395z"/>
</g>
<g>
</g>
<g>
</g>
<g>
</g>
<g>
</g>
<g>
</g>
<g>
</g>
<g>
</g>
<g>
</g>
<g>
</g>
<g>
</g>
<g>
</g>
<g>
</g>
<g>
</g>
<g>
</g>
<g>
</g>
</svg>
