<?xml version="1.0" encoding="iso-8859-1"?>
<!-- Generator: Adobe Illustrator 19.0.0, SVG Export Plug-In . SVG Version: 6.00 Build 0)  -->
<svg version="1.1" id="Layer_1" xmlns="http://www.w3.org/2000/svg" xmlns:xlink="http://www.w3.org/1999/xlink" x="0px" y="0px"
	 viewBox="0 0 286.054 286.054" style="enable-background:new 0 0 286.054 286.054;" xml:space="preserve">
<g>
	<path style="fill:#3DB39E;" d="M143.027,0C64.04,0,0,64.04,0,143.027c0,78.996,64.04,143.027,143.027,143.027
		s143.027-64.031,143.027-143.027C286.054,64.04,222.014,0,143.027,0z M143.027,259.236c-64.183,0-116.209-52.026-116.209-116.209
		S78.844,26.818,143.027,26.818s116.209,52.026,116.209,116.209S207.21,259.236,143.027,259.236z M168.352,142.938l25.289-25.289
		c3.486-3.486,3.486-9.145,0-12.631l-12.649-12.649c-3.495-3.486-9.145-3.495-12.64,0l-25.289,25.289l-25.271-25.271
		c-3.495-3.504-9.163-3.504-12.658-0.018l-12.649,12.649c-3.486,3.486-3.486,9.145,0.009,12.649l25.271,25.271l-25.217,25.217
		c-3.495,3.495-3.495,9.145,0,12.649l12.64,12.64c3.495,3.486,9.154,3.486,12.64,0l25.226-25.226l25.405,25.414
		c3.504,3.495,9.163,3.504,12.658,0.009l12.64-12.64c3.495-3.495,3.486-9.154-0.009-12.649
		C193.748,168.352,168.352,142.938,168.352,142.938z"/>
</g>
<g>
</g>
<g>
</g>
<g>
</g>
<g>
</g>
<g>
</g>
<g>
</g>
<g>
</g>
<g>
</g>
<g>
</g>
<g>
</g>
<g>
</g>
<g>
</g>
<g>
</g>
<g>
</g>
<g>
</g>
</svg>
