<?xml version="1.0" encoding="iso-8859-1"?>
<!-- Generator: Adobe Illustrator 19.0.0, SVG Export Plug-In . SVG Version: 6.00 Build 0)  -->
<svg version="1.1" id="Layer_1" xmlns="http://www.w3.org/2000/svg" xmlns:xlink="http://www.w3.org/1999/xlink" x="0px" y="0px"
	 viewBox="0 0 286.036 286.036" style="enable-background:new 0 0 286.036 286.036;" xml:space="preserve">
<g>
	<path style="fill:#39B29D;" d="M231.641,113.009c-3.915-40.789-37.875-72.792-79.684-72.792c-32.351,0-60.053,19.201-72.819,46.752
		c-3.844-1.225-7.849-2.056-12.095-2.056c-22.214,0-40.226,18.021-40.226,40.226c0,4.416,0.885,8.591,2.199,12.551
		C11.737,147.765,0,166.26,0,187.696c0,32.092,26.013,58.105,58.105,58.105v0.018h160.896v-0.018
		c37.044,0,67.035-30.009,67.035-67.044C286.036,146.075,262.615,118.927,231.641,113.009z M176.808,164.472h-15.912v35.864
		c0,4.943-3.987,8.957-8.939,8.957h-17.878c-4.934,0-8.939-4.014-8.939-8.957v-35.864h-15.921c-9.708,0-13.668-6.481-8.823-14.383
		l33.799-33.316c6.624-6.615,10.816-6.838,17.646,0l33.799,33.316C190.503,158,186.516,164.472,176.808,164.472z"/>
</g>
<g>
</g>
<g>
</g>
<g>
</g>
<g>
</g>
<g>
</g>
<g>
</g>
<g>
</g>
<g>
</g>
<g>
</g>
<g>
</g>
<g>
</g>
<g>
</g>
<g>
</g>
<g>
</g>
<g>
</g>
</svg>
