<?xml version="1.0" encoding="iso-8859-1"?>
<!-- Generator: Adobe Illustrator 19.0.0, SVG Export Plug-In . SVG Version: 6.00 Build 0)  -->
<svg version="1.1" id="Layer_1" xmlns="http://www.w3.org/2000/svg" xmlns:xlink="http://www.w3.org/1999/xlink" x="0px" y="0px"
	 viewBox="0 0 286.036 286.036" style="enable-background:new 0 0 286.036 286.036;" xml:space="preserve">
<g>
	<path style="fill:#39B29D;" d="M231.641,113.009c-3.915-40.789-37.875-72.792-79.684-72.792c-32.351,0-60.053,19.201-72.819,46.752
		c-3.844-1.216-7.849-2.056-12.095-2.056c-22.214,0-40.226,18.021-40.226,40.226c0,4.416,0.885,8.591,2.199,12.551
		C11.737,147.765,0,166.269,0,187.705c0,32.092,26.013,58.105,58.105,58.105v0.009h160.896v-0.009
		c37.035,0,67.035-30.009,67.035-67.044C286.036,146.075,262.615,118.927,231.641,113.009z M193.623,139.21l-53.644,58.73
		c-2.235,2.449-5.247,3.308-8.153,2.932c-3.299,0.939-6.919,0.179-9.502-2.664l-21.123-23.126c-3.889-4.246-3.889-11.12,0-15.366
		c3.88-4.246,10.164-4.246,14.035,0l15.831,17.333l48.567-53.17c3.871-4.228,10.128-4.228,13.99,0
		C197.493,128.125,197.493,135,193.623,139.21z"/>
</g>
<g>
</g>
<g>
</g>
<g>
</g>
<g>
</g>
<g>
</g>
<g>
</g>
<g>
</g>
<g>
</g>
<g>
</g>
<g>
</g>
<g>
</g>
<g>
</g>
<g>
</g>
<g>
</g>
<g>
</g>
</svg>
