<?xml version="1.0" encoding="iso-8859-1"?>
<!-- Generator: Adobe Illustrator 19.0.0, SVG Export Plug-In . SVG Version: 6.00 Build 0)  -->
<svg version="1.1" id="Layer_1" xmlns="http://www.w3.org/2000/svg" xmlns:xlink="http://www.w3.org/1999/xlink" x="0px" y="0px"
	 viewBox="0 0 286.054 286.054" style="enable-background:new 0 0 286.054 286.054;" xml:space="preserve">
<g>
	<path style="fill:#3DB39E;" d="M143.027,178.784c-9.869,0-17.878,8.01-17.878,17.878c0,9.869,8.009,17.878,17.878,17.878
		s17.878-8.01,17.878-17.878C160.905,186.793,152.896,178.784,143.027,178.784z M143.027,0C64.04,0,0,64.04,0,143.027
		c0,78.996,64.04,143.027,143.027,143.027s143.027-64.031,143.027-143.027C286.054,64.04,222.014,0,143.027,0z M143.027,259.236
		c-64.183,0-116.209-52.026-116.209-116.209S78.844,26.818,143.027,26.818s116.209,52.026,116.209,116.209
		S207.21,259.236,143.027,259.236z M196.805,133.954H89.615c-4.934,0-8.939,4.005-8.939,8.939c0,4.943,3.996,8.939,8.939,8.939
		h107.19c4.943,0,8.939-3.996,8.939-8.939C205.744,137.958,201.739,133.954,196.805,133.954z M143.027,107.27
		c9.869,0,17.878-8.01,17.878-17.878s-8.01-17.878-17.878-17.878s-17.878,8.01-17.878,17.878S133.158,107.27,143.027,107.27z"/>
</g>
<g>
</g>
<g>
</g>
<g>
</g>
<g>
</g>
<g>
</g>
<g>
</g>
<g>
</g>
<g>
</g>
<g>
</g>
<g>
</g>
<g>
</g>
<g>
</g>
<g>
</g>
<g>
</g>
<g>
</g>
</svg>
