<?xml version="1.0" encoding="iso-8859-1"?>
<!-- Generator: Adobe Illustrator 19.0.0, SVG Export Plug-In . SVG Version: 6.00 Build 0)  -->
<svg version="1.1" id="Layer_1" xmlns="http://www.w3.org/2000/svg" xmlns:xlink="http://www.w3.org/1999/xlink" x="0px" y="0px"
	 viewBox="0 0 286.054 286.054" style="enable-background:new 0 0 286.054 286.054;" xml:space="preserve">
<g>
	<path style="fill:#3DB39E;" d="M143.027,0C64.04,0,0,64.04,0,143.027c0,78.996,64.04,143.027,143.027,143.027
		s143.027-64.031,143.027-143.027C286.054,64.049,222.014,0,143.027,0z M143.027,259.236c-64.183,0-116.209-52.026-116.209-116.209
		s52.026-116.2,116.209-116.2s116.209,52.017,116.209,116.2S207.21,259.236,143.027,259.236z M194.704,134.088h-24.86V89.392
		c0-4.934-3.996-8.939-8.939-8.939h-35.757c-4.934,0-8.939,4.005-8.939,8.939v44.696H91.341c-9.699,0-13.668,6.463-8.823,14.338
		l51.686,51.096c4.845,7.884,12.783,7.884,17.637,0l51.677-51.096C208.381,140.551,204.412,134.088,194.704,134.088z"/>
</g>
<g>
</g>
<g>
</g>
<g>
</g>
<g>
</g>
<g>
</g>
<g>
</g>
<g>
</g>
<g>
</g>
<g>
</g>
<g>
</g>
<g>
</g>
<g>
</g>
<g>
</g>
<g>
</g>
<g>
</g>
</svg>
