<?xml version="1.0" encoding="iso-8859-1"?>
<!-- Generator: Adobe Illustrator 19.0.0, SVG Export Plug-In . SVG Version: 6.00 Build 0)  -->
<svg version="1.1" id="Layer_1" xmlns="http://www.w3.org/2000/svg" xmlns:xlink="http://www.w3.org/1999/xlink" x="0px" y="0px"
	 viewBox="0 0 286.054 286.054" style="enable-background:new 0 0 286.054 286.054;" xml:space="preserve">
<g>
	<path style="fill:#2394BC;" d="M174.314,160.901H111.74c-7.402,0-13.409,6.007-13.409,13.409s6.007,13.409,13.409,13.409h62.574
		c7.402,0,13.409-6.007,13.409-13.409C187.723,166.908,181.716,160.901,174.314,160.901z M143.027,0.004
		C64.031,0.004,0,64.036,0,143.022c0,78.996,64.031,143.027,143.027,143.027s143.027-64.031,143.027-143.027
		C286.054,64.045,222.022,0.004,143.027,0.004z M143.027,259.232c-64.183,0-116.209-52.026-116.209-116.209
		s52.026-116.21,116.209-116.21s116.209,52.026,116.209,116.209S207.21,259.232,143.027,259.232z M149.15,93.374
		c-3.602-6.195-9.422-3.933-11.621-0.107l-38.018,49.094c-3.048,4.881-0.59,9.672,5.435,9.672h76.215
		c6.034,0,8.483-4.791,5.444-9.672C186.605,142.361,149.15,93.374,149.15,93.374z"/>
</g>
<g>
</g>
<g>
</g>
<g>
</g>
<g>
</g>
<g>
</g>
<g>
</g>
<g>
</g>
<g>
</g>
<g>
</g>
<g>
</g>
<g>
</g>
<g>
</g>
<g>
</g>
<g>
</g>
<g>
</g>
</svg>
