<?xml version="1.0" encoding="iso-8859-1"?>
<!-- Generator: Adobe Illustrator 19.0.0, SVG Export Plug-In . SVG Version: 6.00 Build 0)  -->
<svg version="1.1" id="Layer_1" xmlns="http://www.w3.org/2000/svg" xmlns:xlink="http://www.w3.org/1999/xlink" x="0px" y="0px"
	 viewBox="0 0 223.453 223.453" style="enable-background:new 0 0 223.453 223.453;" xml:space="preserve">
<g>
	<path style="fill:#3DB39E;" d="M55.391,29.571l11.585-10.968c7.741-7.616,5.739-16.207-4.461-18.594H13.448
		C5.313,0.304-0.131,2.762,0.138,13.516L0.066,62.637c2.065,10.128,9.136,12.104,15.733,4.398l13.024-12.309l41.165,41.147
		c3.576,3.567,9.377,3.576,12.944,0.018l12.935-12.935c3.567-3.558,3.558-9.368-0.009-12.935
		C95.858,70.021,55.391,29.571,55.391,29.571z M82.682,127.884c-3.549-3.558-9.341-3.558-12.899,0.018l-41.04,41.004l-12.989-12.291
		c-6.57-7.688-13.623-5.712-15.688,4.38L0.146,210c-0.259,10.691,5.149,13.176,13.275,13.453h48.951
		c10.155-2.405,12.157-10.959,4.443-18.531l-11.549-10.933l40.316-40.334c3.558-3.558,3.567-9.35,0.009-12.89
		C95.59,140.765,82.682,127.884,82.682,127.884z M140.76,95.882c3.549,3.558,9.35,3.549,12.908-0.018l41.049-41.147l12.989,12.309
		c6.552,7.706,13.605,5.73,15.67-4.398l-0.072-49.121C223.564,2.753,218.137,0.295,210.031,0h-48.987
		c-10.164,2.396-12.113,10.986-4.398,18.594l11.567,10.977L127.87,70.003c-3.558,3.567-3.558,9.377,0,12.935
		C127.87,82.938,140.76,95.882,140.76,95.882z M207.742,156.606l-12.953,12.291l-40.906-41.004
		c-3.558-3.576-9.341-3.576-12.872-0.018l-12.863,12.881c-3.54,3.54-3.531,9.333,0.018,12.89l40.199,40.316l-11.54,10.951
		c-7.679,7.589-5.712,16.153,4.416,18.531h48.835c8.09-0.277,13.525-2.762,13.239-13.453l0.072-49.005
		C221.32,150.902,214.285,148.927,207.742,156.606z"/>
</g>
<g>
</g>
<g>
</g>
<g>
</g>
<g>
</g>
<g>
</g>
<g>
</g>
<g>
</g>
<g>
</g>
<g>
</g>
<g>
</g>
<g>
</g>
<g>
</g>
<g>
</g>
<g>
</g>
<g>
</g>
</svg>
