<?xml version="1.0" encoding="iso-8859-1"?>
<!-- Generator: Adobe Illustrator 19.0.0, SVG Export Plug-In . SVG Version: 6.00 Build 0)  -->
<svg version="1.1" id="Layer_1" xmlns="http://www.w3.org/2000/svg" xmlns:xlink="http://www.w3.org/1999/xlink" x="0px" y="0px"
	 viewBox="0 0 286.054 286.054" style="enable-background:new 0 0 286.054 286.054;" xml:space="preserve">
<g>
	<path style="fill:#2394BC;" d="M0,143.022c0,78.996,64.04,143.027,143.027,143.027s143.027-64.031,143.027-143.027
		S222.014,0.004,143.027,0.004S0,64.045,0,143.022z M26.818,143.022c0-64.192,52.026-116.209,116.209-116.209
		S259.236,78.83,259.236,143.022c0,64.183-52.026,116.209-116.209,116.209S26.818,207.206,26.818,143.022z M98.26,104.959v76.207
		c0,6.025,4.8,8.492,9.672,5.444l35.024-22.652v17.208c0,6.025,4.8,8.492,9.672,5.444l48.987-37.464
		c6.195-3.611,3.933-9.413,0.107-11.621l-49.094-38.018c-4.872-3.039-9.672-0.599-9.672,5.435v17.494l-35.024-22.929
		C103.06,96.467,98.259,98.916,98.26,104.959z"/>
</g>
<g>
</g>
<g>
</g>
<g>
</g>
<g>
</g>
<g>
</g>
<g>
</g>
<g>
</g>
<g>
</g>
<g>
</g>
<g>
</g>
<g>
</g>
<g>
</g>
<g>
</g>
<g>
</g>
<g>
</g>
</svg>
