<?xml version="1.0" encoding="iso-8859-1"?>
<!-- Generator: Adobe Illustrator 19.0.0, SVG Export Plug-In . SVG Version: 6.00 Build 0)  -->
<svg version="1.1" id="Layer_1" xmlns="http://www.w3.org/2000/svg" xmlns:xlink="http://www.w3.org/1999/xlink" x="0px" y="0px"
	 viewBox="0 0 286.054 286.054" style="enable-background:new 0 0 286.054 286.054;" xml:space="preserve">
<g>
	<path style="fill:#39B29D;" d="M277.115,0H8.939C4.005,0,0,4.005,0,8.939v26.818c0,4.943,4.005,8.939,8.939,8.939h268.176
		c4.943,0,8.939-3.996,8.939-8.939V8.939C286.054,4.005,282.058,0,277.115,0z M277.115,80.453H8.939C4.005,80.453,0,84.457,0,89.392
		v26.818c0,4.943,4.005,8.939,8.939,8.939h268.176c4.943,0,8.939-3.996,8.939-8.939V89.392
		C286.054,84.457,282.058,80.453,277.115,80.453z M277.115,160.905H8.939c-4.934,0-8.939,3.996-8.939,8.939v26.818
		c0,4.943,4.005,8.939,8.939,8.939h268.176c4.943,0,8.939-3.996,8.939-8.939v-26.818
		C286.054,164.901,282.058,160.905,277.115,160.905z M277.115,241.358H8.939c-4.934,0-8.939,3.996-8.939,8.939v26.818
		c0,4.943,4.005,8.939,8.939,8.939h268.176c4.943,0,8.939-3.996,8.939-8.939v-26.818
		C286.054,245.354,282.058,241.358,277.115,241.358z"/>
</g>
<g>
</g>
<g>
</g>
<g>
</g>
<g>
</g>
<g>
</g>
<g>
</g>
<g>
</g>
<g>
</g>
<g>
</g>
<g>
</g>
<g>
</g>
<g>
</g>
<g>
</g>
<g>
</g>
<g>
</g>
</svg>
