<?xml version="1.0" encoding="iso-8859-1"?>
<!-- Generator: Adobe Illustrator 19.0.0, SVG Export Plug-In . SVG Version: 6.00 Build 0)  -->
<svg version="1.1" id="Layer_1" xmlns="http://www.w3.org/2000/svg" xmlns:xlink="http://www.w3.org/1999/xlink" x="0px" y="0px"
	 viewBox="0 0 286.054 286.054" style="enable-background:new 0 0 286.054 286.054;" xml:space="preserve">
<g>
	<path style="fill:#3BB39D;" d="M62.574,0H8.939C4.005,0,0,4.005,0,8.939v53.635c0,4.943,4.005,8.939,8.939,8.939h53.635
		c4.934,0,8.939-3.996,8.939-8.939V8.939C71.513,4.005,67.509,0,62.574,0z M62.574,107.27H8.939c-4.934,0-8.939,3.996-8.939,8.939
		v53.635c0,4.943,4.005,8.939,8.939,8.939h53.635c4.934,0,8.939-3.996,8.939-8.939v-53.635
		C71.513,111.266,67.509,107.27,62.574,107.27z M62.574,214.54H8.939c-4.934,0-8.939,3.996-8.939,8.94v53.635
		c0,4.943,4.005,8.939,8.939,8.939h53.635c4.934,0,8.939-3.996,8.939-8.939V223.48C71.513,218.536,67.509,214.54,62.574,214.54z
		 M277.115,107.27H116.209c-4.943,0-8.939,3.996-8.939,8.939v53.635c0,4.943,3.996,8.939,8.939,8.939h160.905
		c4.943,0,8.939-3.996,8.939-8.939v-53.635C286.054,111.266,282.059,107.27,277.115,107.27z M277.115,0H116.209
		c-4.943,0-8.939,4.005-8.939,8.939v53.635c0,4.943,3.996,8.939,8.939,8.939h160.905c4.943,0,8.939-3.996,8.939-8.939V8.939
		C286.054,4.005,282.059,0,277.115,0z M277.115,214.54H116.209c-4.943,0-8.939,3.996-8.939,8.939v53.635
		c0,4.943,3.996,8.939,8.939,8.939h160.905c4.943,0,8.939-3.996,8.939-8.939V223.48C286.054,218.536,282.059,214.54,277.115,214.54z
		"/>
</g>
<g>
</g>
<g>
</g>
<g>
</g>
<g>
</g>
<g>
</g>
<g>
</g>
<g>
</g>
<g>
</g>
<g>
</g>
<g>
</g>
<g>
</g>
<g>
</g>
<g>
</g>
<g>
</g>
<g>
</g>
</svg>
