<?xml version="1.0" encoding="iso-8859-1"?>
<!-- Generator: Adobe Illustrator 19.0.0, SVG Export Plug-In . SVG Version: 6.00 Build 0)  -->
<svg version="1.1" id="Layer_1" xmlns="http://www.w3.org/2000/svg" xmlns:xlink="http://www.w3.org/1999/xlink" x="0px" y="0px"
	 viewBox="0 0 286.054 286.054" style="enable-background:new 0 0 286.054 286.054;" xml:space="preserve">
<g>
	<path style="fill:#37B29D;" d="M80.453,286.054h53.635v-26.818H80.453V286.054z M80.453,26.809h53.635V0H80.453V26.809z M35.757,0
		C16.019,0,0,16.001,0,35.748v26.987l26.818-0.072V44.687c0-9.869,8.01-17.878,17.878-17.878h17.735L62.342,0H35.757z
		 M26.818,241.358V223.39L0,223.319v26.978c0,19.747,16.01,35.757,35.757,35.757h26.585l0.098-26.818H44.696
		C34.827,259.236,26.818,251.227,26.818,241.358z M26.818,80.444H0v53.644h26.818V80.444z M151.966,286.054h53.635v-26.818h-53.635
		V286.054z M250.297,0h-26.576l-0.107,26.809h17.744c9.878,0,17.878,8.01,17.878,17.878v17.977l26.818,0.072V35.748
		C286.054,16.001,270.044,0,250.297,0z M259.236,134.088h26.818V80.444h-26.818V134.088z M259.236,241.358
		c0,9.869-8.001,17.878-17.878,17.878h-17.735l0.107,26.818h26.567c19.747,0,35.757-16.01,35.757-35.757v-26.978l-26.818,0.072
		V241.358z M151.966,26.809h53.635V0h-53.635V26.809z M259.236,205.601h26.818v-53.626h-26.818V205.601z M26.818,151.975H0v53.626
		h26.818V151.975z"/>
</g>
<g>
</g>
<g>
</g>
<g>
</g>
<g>
</g>
<g>
</g>
<g>
</g>
<g>
</g>
<g>
</g>
<g>
</g>
<g>
</g>
<g>
</g>
<g>
</g>
<g>
</g>
<g>
</g>
<g>
</g>
</svg>
