<?xml version="1.0" encoding="iso-8859-1"?>
<!-- Generator: Adobe Illustrator 19.0.0, SVG Export Plug-In . SVG Version: 6.00 Build 0)  -->
<svg version="1.1" id="Layer_1" xmlns="http://www.w3.org/2000/svg" xmlns:xlink="http://www.w3.org/1999/xlink" x="0px" y="0px"
	 viewBox="0 0 241.801 241.801" style="enable-background:new 0 0 241.801 241.801;" xml:space="preserve">
<g>
	<path style="fill:#3DB39E;" d="M156.565,98.546h49.112c10.191-2.387,12.166-10.951,4.434-18.531l-11.603-10.942l40.441-40.325
		c3.576-3.558,3.585-9.341,0.009-12.899L226.032,2.968c-3.558-3.558-9.377-3.549-12.944,0.009l-41.156,41.031l-13.033-12.291
		c-6.579-7.679-13.659-5.712-15.733,4.398l0.072,48.987C142.978,95.801,148.422,98.26,156.565,98.546z"/>
	<path style="fill:#3DB39E;" d="M198.535,172.812l11.603-10.986c7.75-7.616,5.793-16.198-4.389-18.585h-49.174
		c-8.144,0.295-13.596,2.771-13.319,13.525l-0.072,49.139c2.056,10.137,9.136,12.104,15.733,4.398l13.024-12.327l41.156,41.147
		c3.567,3.567,9.377,3.567,12.944,0.018l12.935-12.935c3.576-3.576,3.567-9.377-0.009-12.953
		C238.967,213.253,198.535,172.812,198.535,172.812z"/>
	<path style="fill:#3DB39E;" d="M82.656,31.43l-12.98,12.291L28.619,2.673c-3.567-3.558-9.35-3.567-12.908-0.009l-12.9,12.899
		c-3.558,3.567-3.549,9.35,0.009,12.908l40.334,40.325L31.587,79.738c-7.715,7.589-5.766,16.153,4.389,18.531H84.98
		c8.126-0.286,13.552-2.744,13.275-13.462l0.08-48.987C96.279,25.718,89.217,23.742,82.656,31.43z"/>
	<path style="fill:#3DB39E;" d="M84.98,142.955H36.155C26,145.36,23.863,153.942,31.578,161.549l11.567,10.986L2.82,212.949
		c-3.558,3.576-3.567,9.377-0.009,12.953l12.899,12.935c3.549,3.549,9.35,3.549,12.908-0.018l41.04-41.147l12.98,12.327
		c6.561,7.697,13.614,5.739,15.688-4.389l-0.08-49.148C98.532,145.718,93.115,143.25,84.98,142.955z"/>
</g>
<g>
</g>
<g>
</g>
<g>
</g>
<g>
</g>
<g>
</g>
<g>
</g>
<g>
</g>
<g>
</g>
<g>
</g>
<g>
</g>
<g>
</g>
<g>
</g>
<g>
</g>
<g>
</g>
<g>
</g>
</svg>
