<?xml version="1.0" encoding="iso-8859-1"?>
<!-- Generator: Adobe Illustrator 19.0.0, SVG Export Plug-In . SVG Version: 6.00 Build 0)  -->
<svg version="1.1" id="Layer_1" xmlns="http://www.w3.org/2000/svg" xmlns:xlink="http://www.w3.org/1999/xlink" x="0px" y="0px"
	 viewBox="0 0 268.012 268.012" style="enable-background:new 0 0 268.012 268.012;" xml:space="preserve">
<g>
	<path style="fill:#3DB39E;" d="M262.833,123.5l-31.761-31.6c-9.252-5.399-16.743-1.135-16.609,9.493l0.107,15.286l-62.422,0.036
		l-0.036-63.504l16.126-0.116c9.869,0.805,13.409-5.855,7.849-14.821L142.065,5.289c-7.241-8.072-12.712-5.882-18.549-0.098
		L91.907,36.933c-5.399,9.252-1.126,16.734,9.493,16.609l15.286-0.116l0.036,63.307l-63.272,0.045l0.107-15.393
		c0.116-10.62-7.366-14.893-16.618-9.493l-31.752,31.6c-5.784,5.828-8.001,11.308,0.098,18.549l32.986,34.031
		c8.957,5.551,15.635,2.029,14.812-7.858l0.116-16.028l63.531-0.036l0.036,62.387l-15.366-0.089
		c-10.62-0.143-14.902,7.366-9.493,16.6l31.609,31.779c5.837,5.766,11.317,7.983,18.549-0.125l34.023-32.977
		c5.56-8.957,2.038-15.626-7.849-14.803l-16.028-0.125l-0.036-62.682l62.637-0.036l0.116,16.135
		c-0.805,9.869,5.864,13.409,14.821,7.858l32.977-34.031C270.816,134.8,268.617,129.329,262.833,123.5z"/>
</g>
<g>
</g>
<g>
</g>
<g>
</g>
<g>
</g>
<g>
</g>
<g>
</g>
<g>
</g>
<g>
</g>
<g>
</g>
<g>
</g>
<g>
</g>
<g>
</g>
<g>
</g>
<g>
</g>
<g>
</g>
</svg>
