<?xml version="1.0" encoding="iso-8859-1"?>
<!-- Generator: Adobe Illustrator 19.0.0, SVG Export Plug-In . SVG Version: 6.00 Build 0)  -->
<svg version="1.1" id="Layer_1" xmlns="http://www.w3.org/2000/svg" xmlns:xlink="http://www.w3.org/1999/xlink" x="0px" y="0px"
	 viewBox="0 0 286.054 286.054" style="enable-background:new 0 0 286.054 286.054;" xml:space="preserve">
<g>
	<path style="fill:#3DB39E;" d="M277.115,17.878h-17.878c-4.943,0-8.939,4.005-8.939,8.939v98.331h-26.961v-15.921
		c0-9.699-6.472-13.668-14.365-8.814l-33.316,33.799c-6.24,6.24-6.383,11.263,0,17.646l33.316,33.799
		c7.902,4.854,14.365,0.885,14.365-8.814v-15.939h26.961v98.331c0,4.943,3.996,8.939,8.939,8.939h17.878
		c4.943,0,8.939-3.996,8.939-8.939V26.818C286.054,21.883,282.058,17.878,277.115,17.878z M77.083,100.405
		c-7.902-4.854-14.365-0.885-14.365,8.814v15.93H35.757V26.818c0-4.934-4.005-8.939-8.939-8.939H8.939
		C4.005,17.878,0,21.883,0,26.818v232.419c0,4.943,4.005,8.939,8.939,8.939h17.878c4.934,0,8.939-3.996,8.939-8.939v-98.331h26.961
		v15.93c0,9.699,6.463,13.668,14.365,8.814l33.316-33.799c7.616-7.625,6.374-11.263,0-17.646
		C110.399,134.204,77.083,100.405,77.083,100.405z"/>
</g>
<g>
</g>
<g>
</g>
<g>
</g>
<g>
</g>
<g>
</g>
<g>
</g>
<g>
</g>
<g>
</g>
<g>
</g>
<g>
</g>
<g>
</g>
<g>
</g>
<g>
</g>
<g>
</g>
<g>
</g>
</svg>
