<?xml version="1.0" encoding="iso-8859-1"?>
<!-- Generator: Adobe Illustrator 19.0.0, SVG Export Plug-In . SVG Version: 6.00 Build 0)  -->
<svg version="1.1" id="Layer_1" xmlns="http://www.w3.org/2000/svg" xmlns:xlink="http://www.w3.org/1999/xlink" x="0px" y="0px"
	 viewBox="0 0 286.054 286.054" style="enable-background:new 0 0 286.054 286.054;" xml:space="preserve">
<g>
	<path style="fill:#2394BC;" d="M157.026,137.561l-49.085-37.786c-4.881-3.021-9.681-0.581-9.681,5.408v75.742
		c0,5.998,4.8,8.43,9.681,5.408l48.978-37.232C163.131,145.525,160.861,139.751,157.026,137.561z M143.027,0.004
		C64.031,0.004,0,64.036,0,143.022c0,78.996,64.031,143.027,143.027,143.027s143.027-64.031,143.027-143.027
		C286.054,64.045,222.022,0.004,143.027,0.004z M143.027,259.232c-64.183,0-116.209-52.026-116.209-116.209
		s52.026-116.21,116.209-116.21s116.209,52.026,116.209,116.209S207.21,259.232,143.027,259.232z M174.314,98.327
		c-7.402,0-13.409,6.007-13.409,13.409v62.574c0,7.402,6.007,13.409,13.409,13.409s13.409-6.007,13.409-13.409v-62.574
		C187.723,104.334,181.716,98.327,174.314,98.327z"/>
</g>
<g>
</g>
<g>
</g>
<g>
</g>
<g>
</g>
<g>
</g>
<g>
</g>
<g>
</g>
<g>
</g>
<g>
</g>
<g>
</g>
<g>
</g>
<g>
</g>
<g>
</g>
<g>
</g>
<g>
</g>
</svg>
