<?xml version="1.0" encoding="iso-8859-1"?>
<!-- Generator: Adobe Illustrator 19.0.0, SVG Export Plug-In . SVG Version: 6.00 Build 0)  -->
<svg version="1.1" id="Layer_1" xmlns="http://www.w3.org/2000/svg" xmlns:xlink="http://www.w3.org/1999/xlink" x="0px" y="0px"
	 viewBox="0 0 286.054 286.054" style="enable-background:new 0 0 286.054 286.054;" xml:space="preserve">
<g>
	<path style="fill:#3DB39E;" d="M0,143.027c0,78.987,64.031,143.027,143.027,143.027c79.005,0,143.027-64.04,143.027-143.027
		C286.054,64.031,222.031,0,143.027,0C64.04,0,0,64.04,0,143.027z M259.236,143.027c0,64.192-52.008,116.209-116.209,116.209
		S26.835,207.219,26.835,143.027S78.826,26.818,143.027,26.818C207.21,26.818,259.236,78.853,259.236,143.027z M134.088,91.358
		v24.86H89.392c-4.943,0-8.939,3.987-8.939,8.939v35.757c0,4.934,3.996,8.939,8.939,8.939h44.696v24.842
		c0,9.708,6.463,13.668,14.338,8.832l51.105-51.695c7.884-4.845,7.884-12.783,0-17.628l-51.105-51.677
		C140.551,77.681,134.088,81.642,134.088,91.358z"/>
</g>
<g>
</g>
<g>
</g>
<g>
</g>
<g>
</g>
<g>
</g>
<g>
</g>
<g>
</g>
<g>
</g>
<g>
</g>
<g>
</g>
<g>
</g>
<g>
</g>
<g>
</g>
<g>
</g>
<g>
</g>
</svg>
