<?xml version="1.0" encoding="iso-8859-1"?>
<!-- Generator: Adobe Illustrator 19.0.0, SVG Export Plug-In . SVG Version: 6.00 Build 0)  -->
<svg version="1.1" id="Layer_1" xmlns="http://www.w3.org/2000/svg" xmlns:xlink="http://www.w3.org/1999/xlink" x="0px" y="0px"
	 viewBox="0 0 286.054 286.054" style="enable-background:new 0 0 286.054 286.054;" xml:space="preserve">
<g>
	<path style="fill:#2394BC;" d="M129.126,149.101l48.978,37.232c4.881,3.021,9.681,0.581,9.681-5.408v-75.742
		c0-5.989-4.8-8.43-9.681-5.408l-49.085,37.795C125.193,139.751,122.923,145.525,129.126,149.101z M0,143.022
		c0,78.996,64.031,143.027,143.027,143.027s143.027-64.031,143.027-143.027S222.022,0.004,143.027,0.004S0,64.045,0,143.022z
		 M26.818,143.022c0-64.192,52.026-116.209,116.209-116.209S259.236,78.83,259.236,143.022c0,64.183-52.026,116.209-116.209,116.209
		S26.818,207.206,26.818,143.022z M98.331,111.735v62.574c0,7.393,6.007,13.409,13.409,13.409c7.402,0,13.409-6.016,13.409-13.409
		v-62.574c0-7.402-6.007-13.409-13.409-13.409C104.338,98.327,98.331,104.334,98.331,111.735z"/>
</g>
<g>
</g>
<g>
</g>
<g>
</g>
<g>
</g>
<g>
</g>
<g>
</g>
<g>
</g>
<g>
</g>
<g>
</g>
<g>
</g>
<g>
</g>
<g>
</g>
<g>
</g>
<g>
</g>
<g>
</g>
</svg>
