<?xml version="1.0" encoding="iso-8859-1"?>
<!-- Generator: Adobe Illustrator 19.0.0, SVG Export Plug-In . SVG Version: 6.00 Build 0)  -->
<svg version="1.1" id="Layer_1" xmlns="http://www.w3.org/2000/svg" xmlns:xlink="http://www.w3.org/1999/xlink" x="0px" y="0px"
	 viewBox="0 0 286.054 286.054" style="enable-background:new 0 0 286.054 286.054;" xml:space="preserve">
<g>
	<path style="fill:#3DB39E;" d="M143.027,0C64.022,0,0,64.04,0,143.027s64.022,143.027,143.027,143.027
		c78.996,0,143.027-64.04,143.027-143.027S222.014,0,143.027,0z M143.027,26.818c64.192,0,116.192,52.026,116.192,116.209
		c0,64.192-51.999,116.209-116.192,116.209S26.818,207.219,26.818,143.027C26.818,78.853,78.844,26.818,143.027,26.818z
		 M137.628,82.535l-51.096,51.677c-7.884,4.845-7.884,12.783,0,17.628l51.096,51.695c7.875,4.836,14.338,0.876,14.338-8.832v-24.851
		h44.696c4.943,0,8.939-4.005,8.939-8.939v-35.757c0-4.943-3.996-8.939-8.939-8.939h-44.696v-24.86
		C151.966,81.642,145.503,77.681,137.628,82.535z"/>
</g>
<g>
</g>
<g>
</g>
<g>
</g>
<g>
</g>
<g>
</g>
<g>
</g>
<g>
</g>
<g>
</g>
<g>
</g>
<g>
</g>
<g>
</g>
<g>
</g>
<g>
</g>
<g>
</g>
<g>
</g>
</svg>
