<?xml version="1.0" encoding="iso-8859-1"?>
<!-- Generator: Adobe Illustrator 19.0.0, SVG Export Plug-In . SVG Version: 6.00 Build 0)  -->
<svg version="1.1" id="Layer_1" xmlns="http://www.w3.org/2000/svg" xmlns:xlink="http://www.w3.org/1999/xlink" x="0px" y="0px"
	 viewBox="0 0 286.054 286.054" style="enable-background:new 0 0 286.054 286.054;" xml:space="preserve">
<g>
	<path style="fill:#E2574C;" d="M143.027,98.327c24.69,0,44.696,20.006,44.696,44.696s-20.006,44.696-44.696,44.696
		s-44.696-20.006-44.696-44.696S118.337,98.327,143.027,98.327z"/>
	<path style="fill:#E2574C;" d="M143.027,0.004C64.031,0.004,0,64.036,0,143.022c0,78.996,64.031,143.027,143.027,143.027
		s143.027-64.031,143.027-143.027C286.054,64.045,222.022,0.004,143.027,0.004z M143.027,259.232
		c-64.183,0-116.209-52.026-116.209-116.209s52.026-116.21,116.209-116.21s116.209,52.026,116.209,116.209
		S207.21,259.232,143.027,259.232z"/>
</g>
<g>
</g>
<g>
</g>
<g>
</g>
<g>
</g>
<g>
</g>
<g>
</g>
<g>
</g>
<g>
</g>
<g>
</g>
<g>
</g>
<g>
</g>
<g>
</g>
<g>
</g>
<g>
</g>
<g>
</g>
</svg>
