<?xml version="1.0" encoding="iso-8859-1"?>
<!-- Generator: Adobe Illustrator 19.0.0, SVG Export Plug-In . SVG Version: 6.00 Build 0)  -->
<svg version="1.1" id="Layer_1" xmlns="http://www.w3.org/2000/svg" xmlns:xlink="http://www.w3.org/1999/xlink" x="0px" y="0px"
	 viewBox="0 0 284.159 284.159" style="enable-background:new 0 0 284.159 284.159;" xml:space="preserve">
<g>
	<path style="fill:#3DB39E;" d="M279.467,57.158L237.453,14.25c-8.045-4.47-14.303-0.894-14.303,8.939v25.03H89.062
		c-82.24,0-80.453,57.211-80.453,62.574v62.574c0,0,35.757-34.863,35.757-35.757v-25.924c0,0.894,1.788-27.711,44.696-27.711H223.15
		v25.03c0,9.833,6.257,13.409,14.303,8.939l42.014-42.908C285.724,67.885,285.724,63.415,279.467,57.158z M275.891,110.793
		c0,0-35.757,34.863-35.757,35.757v25.924c0-0.894-1.788,27.711-44.696,27.711H61.351v-25.03c0-9.833-6.257-13.409-14.303-8.939
		L5.034,209.124c-6.257,6.257-7.151,10.727,0,17.878l42.014,42.908c8.045,4.47,14.303,0.894,14.303-8.939v-25.03h134.088
		c82.24,0,80.453-57.211,80.453-62.574v-62.574H275.891z"/>
</g>
<g>
</g>
<g>
</g>
<g>
</g>
<g>
</g>
<g>
</g>
<g>
</g>
<g>
</g>
<g>
</g>
<g>
</g>
<g>
</g>
<g>
</g>
<g>
</g>
<g>
</g>
<g>
</g>
<g>
</g>
</svg>
