<?xml version="1.0" encoding="iso-8859-1"?>
<!-- Generator: Adobe Illustrator 19.0.0, SVG Export Plug-In . SVG Version: 6.00 Build 0)  -->
<svg version="1.1" id="Layer_1" xmlns="http://www.w3.org/2000/svg" xmlns:xlink="http://www.w3.org/1999/xlink" x="0px" y="0px"
	 viewBox="0 0 223.488 223.488" style="enable-background:new 0 0 223.488 223.488;" xml:space="preserve">
<g>
	<path style="fill:#3DB39E;" d="M223.408,13.498C223.667,2.753,218.25,0.295,210.124,0h-66.463
		c-10.164,2.396-12.506,10.977-4.782,18.585l20.56,19.8L37.947,160.02l-22.196-21.23c-6.579-7.688-13.668-5.712-15.742,4.398
		l0.072,66.829c-0.259,10.727,5.185,13.185,13.337,13.471h66.811c10.2-2.396,12.425-10.959,4.666-18.549l-20.542-19.648
		L185.756,63.745L207.8,84.976c6.552,7.715,13.614,5.73,15.679-4.398C223.48,80.578,223.408,13.498,223.408,13.498z"/>
</g>
<g>
</g>
<g>
</g>
<g>
</g>
<g>
</g>
<g>
</g>
<g>
</g>
<g>
</g>
<g>
</g>
<g>
</g>
<g>
</g>
<g>
</g>
<g>
</g>
<g>
</g>
<g>
</g>
<g>
</g>
</svg>
