<?xml version="1.0" encoding="iso-8859-1"?>
<!-- Generator: Adobe Illustrator 19.0.0, SVG Export Plug-In . SVG Version: 6.00 Build 0)  -->
<svg version="1.1" id="Layer_1" xmlns="http://www.w3.org/2000/svg" xmlns:xlink="http://www.w3.org/1999/xlink" x="0px" y="0px"
	 viewBox="0 0 284.22 284.22" style="enable-background:new 0 0 284.22 284.22;" xml:space="preserve">
<g>
	<path style="fill:#3DB39E;" d="M279.322,133.296l-33.334-33.799c-7.911-4.854-14.347-0.885-14.347,8.814v15.921h-26.978V25.901
		c0-4.934-4.014-8.939-8.939-8.939h-17.878c-4.943,0-8.939,4.005-8.939,8.939V258.32c0,4.943,3.996,8.939,8.939,8.939h17.878
		c4.925,0,8.939-3.996,8.939-8.939v-98.331h26.978v15.93c0,9.699,6.463,13.659,14.347,8.805l33.334-33.799
		C286.008,144.247,285.696,139.67,279.322,133.296z M106.331,16.962H88.453c-4.934,0-8.939,4.005-8.939,8.939v98.331H52.553v-15.921
		c0-9.699-6.463-13.668-14.365-8.814L4.871,133.296c-6.374,6.383-6.615,11.031,0,17.646l33.316,33.799
		c7.902,4.854,14.365,0.885,14.365-8.814v-15.939h26.961v98.331c0,4.943,4.005,8.939,8.939,8.939h17.878
		c4.934,0,8.939-3.996,8.939-8.939V25.901C115.27,20.966,111.265,16.962,106.331,16.962z"/>
</g>
<g>
</g>
<g>
</g>
<g>
</g>
<g>
</g>
<g>
</g>
<g>
</g>
<g>
</g>
<g>
</g>
<g>
</g>
<g>
</g>
<g>
</g>
<g>
</g>
<g>
</g>
<g>
</g>
<g>
</g>
</svg>
