<?xml version="1.0" encoding="iso-8859-1"?>
<!-- Generator: Adobe Illustrator 19.0.0, SVG Export Plug-In . SVG Version: 6.00 Build 0)  -->
<svg version="1.1" id="Layer_1" xmlns="http://www.w3.org/2000/svg" xmlns:xlink="http://www.w3.org/1999/xlink" x="0px" y="0px"
	 viewBox="0 0 285.43 285.43" style="enable-background:new 0 0 285.43 285.43;" xml:space="preserve">
<g>
	<path style="fill:#3BB39D;" d="M280.226,84.735L246.91,50.936c-7.911-4.854-14.365-0.894-14.365,8.814v15.912H214.54l-0.036,0.009
		c-86.495,0.187-111.918,107.26-187.534,107.26H8.957c-4.952,0-8.957,4.005-8.957,8.948v17.869c0,4.943,4.005,8.939,8.957,8.939
		h18.039c96.606,0,120.08-107.27,187.741-107.27h17.825v15.93c0,9.699,6.472,13.668,14.365,8.814l33.316-33.799
		C287.162,95.435,286.948,91.457,280.226,84.735z"/>
	<g>
		<path style="fill:#37A18E;" d="M280.226,183.066l-33.316-33.799c-7.911-4.854-14.365-0.885-14.365,8.814v15.921H214.72
			c-22.732,0-40.468-12.113-57.676-28.194c-4.997,4.809-10.003,9.914-15.17,15.241c-3.218,3.307-6.508,6.678-9.86,10.03
			c22.402,20.962,47.431,38.59,82.5,38.671l0.045,0.009h18.004v15.93c0,9.699,6.472,13.659,14.365,8.805l33.316-33.799
			C287.162,193.766,287.162,189.993,280.226,183.066z M8.957,102.488h18.039c29.946,0,52.017,16.815,73.131,37.098
			c3.576-3.513,7.151-7.089,10.745-10.709c4.854-4.899,9.753-9.824,14.75-14.625c-24.994-24.619-54.019-47.521-98.644-47.521H8.957
			C4.005,66.731,0,70.736,0,75.679v17.878C0,98.492,4.005,102.488,8.957,102.488z"/>
	</g>
</g>
<g>
</g>
<g>
</g>
<g>
</g>
<g>
</g>
<g>
</g>
<g>
</g>
<g>
</g>
<g>
</g>
<g>
</g>
<g>
</g>
<g>
</g>
<g>
</g>
<g>
</g>
<g>
</g>
<g>
</g>
</svg>
