<?xml version="1.0" encoding="iso-8859-1"?>
<!-- Generator: Adobe Illustrator 19.0.0, SVG Export Plug-In . SVG Version: 6.00 Build 0)  -->
<svg version="1.1" id="Layer_1" xmlns="http://www.w3.org/2000/svg" xmlns:xlink="http://www.w3.org/1999/xlink" x="0px" y="0px"
	 viewBox="0 0 286.055 286.055" style="enable-background:new 0 0 286.055 286.055;" xml:space="preserve">
<g>
	<path style="fill:#35B29D;" d="M44.697,26.818h17.735L62.343,0H35.758C16.011,0,0.001,16.01,0.001,35.757v26.978l26.818-0.072
		V44.696C26.819,34.827,34.828,26.818,44.697,26.818z M62.343,286.054l0.098-26.809H44.697c-9.869,0-17.878-8.009-17.878-17.878
		V223.39l-26.818-0.071v26.987c0,19.747,16.01,35.748,35.757,35.748L62.343,286.054L62.343,286.054z M26.819,151.966H0.001v53.644
		h26.818V151.966z M134.089,259.245H80.454v26.809h53.635V259.245z M26.819,80.453H0.001v53.626h26.818V80.453z M80.454,26.818
		h53.635V0H80.454V26.818z M259.237,205.61h26.818v-53.644h-26.818V205.61z M286.055,250.306v-26.987l-26.818,0.072v17.977
		c0,9.869-8.01,17.878-17.878,17.878h-17.744l0.098,26.809h26.585C270.044,286.054,286.055,270.053,286.055,250.306z
		 M259.237,134.079h26.818V80.453h-26.818V134.079z M259.237,62.664l26.818,0.072V35.757C286.055,16.01,270.044,0,250.298,0h-26.585
		l-0.107,26.818h17.753c9.869,0,17.878,8.01,17.878,17.878C259.237,44.696,259.237,62.664,259.237,62.664z M151.967,26.818h53.635V0
		h-53.635V26.818z M151.967,286.054h53.635v-26.809h-53.635V286.054z M203.527,128.688l-51.686-51.096
		c-4.854-7.884-12.792-7.884-17.646,0l-51.677,51.105c-4.845,7.866-0.876,14.329,8.832,14.329h24.86v53.644
		c0,4.934,3.996,8.939,8.939,8.939h35.757c4.943,0,8.939-4.005,8.939-8.939v-53.644h24.86
		C204.404,143.027,208.382,136.564,203.527,128.688z"/>
</g>
<g>
</g>
<g>
</g>
<g>
</g>
<g>
</g>
<g>
</g>
<g>
</g>
<g>
</g>
<g>
</g>
<g>
</g>
<g>
</g>
<g>
</g>
<g>
</g>
<g>
</g>
<g>
</g>
<g>
</g>
</svg>
