<?xml version="1.0" encoding="iso-8859-1"?>
<!-- Generator: Adobe Illustrator 19.0.0, SVG Export Plug-In . SVG Version: 6.00 Build 0)  -->
<svg version="1.1" id="Layer_1" xmlns="http://www.w3.org/2000/svg" xmlns:xlink="http://www.w3.org/1999/xlink" x="0px" y="0px"
	 viewBox="0 0 286.054 286.054" style="enable-background:new 0 0 286.054 286.054;" xml:space="preserve">
<g>
	<path style="fill:#2394BC;" d="M131.402,100.074l-26.818,16.278H89.289c-9.779,0-8.85,7.974-8.85,17.78v17.78
		c0,9.833-0.93,17.78,8.85,17.78h15.116l26.996,16.359c5.9,3.629,11.719,0.697,11.719-6.499v-73.006
		C143.121,99.368,137.301,96.445,131.402,100.074z M143.031,0C64.027,0,0.004,64.031,0.004,143.027s64.031,143.027,143.027,143.027
		c78.987,0,143.018-64.031,143.018-143.027S222.018,0,143.031,0z M143.031,259.236c-64.183,0-116.209-52.026-116.209-116.209
		c0-64.192,52.035-116.209,116.209-116.209c64.183,0,116.2,52.017,116.2,116.209C259.232,207.21,207.215,259.236,143.031,259.236z
		 M205.597,134.088H169.84c-4.952,0-8.939,3.996-8.939,8.939s3.987,8.939,8.939,8.939h35.757c4.943,0,8.939-3.996,8.939-8.939
		C214.536,138.101,210.54,134.088,205.597,134.088z"/>
</g>
<g>
</g>
<g>
</g>
<g>
</g>
<g>
</g>
<g>
</g>
<g>
</g>
<g>
</g>
<g>
</g>
<g>
</g>
<g>
</g>
<g>
</g>
<g>
</g>
<g>
</g>
<g>
</g>
<g>
</g>
</svg>
