<?xml version="1.0" encoding="iso-8859-1"?>
<!-- Generator: Adobe Illustrator 19.0.0, SVG Export Plug-In . SVG Version: 6.00 Build 0)  -->
<svg version="1.1" id="Layer_1" xmlns="http://www.w3.org/2000/svg" xmlns:xlink="http://www.w3.org/1999/xlink" x="0px" y="0px"
	 viewBox="0 0 268.175 268.175" style="enable-background:new 0 0 268.175 268.175;" xml:space="preserve">
<g>
	<path style="fill:#2394BC;" d="M35.757,143.027H17.878C8.01,143.027,0,151.036,0,160.905v53.635c0,9.869,8.01,17.878,17.878,17.878
		h17.878c9.869,0,17.878-8.01,17.878-17.878v-53.635C53.635,151.036,45.626,143.027,35.757,143.027z M107.27,107.27H89.392
		c-9.869,0-17.878,8.01-17.878,17.878v89.392c0,9.869,8.01,17.878,17.878,17.878h17.878c9.869,0,17.878-8.01,17.878-17.878v-89.392
		C125.149,115.28,117.139,107.27,107.27,107.27z M178.784,71.513h-17.878c-9.869,0-17.878,8.01-17.878,17.878V214.54
		c0,9.869,8.01,17.878,17.878,17.878h17.878c9.869,0,17.878-8.01,17.878-17.878V89.392
		C196.662,79.523,188.653,71.513,178.784,71.513z M250.297,35.757h-17.878c-9.869,0-17.878,8.01-17.878,17.878V214.54
		c0,9.869,8.01,17.878,17.878,17.878h17.878c9.869,0,17.878-8.01,17.878-17.878V53.635
		C268.176,43.766,260.166,35.757,250.297,35.757z"/>
</g>
<g>
</g>
<g>
</g>
<g>
</g>
<g>
</g>
<g>
</g>
<g>
</g>
<g>
</g>
<g>
</g>
<g>
</g>
<g>
</g>
<g>
</g>
<g>
</g>
<g>
</g>
<g>
</g>
<g>
</g>
</svg>
