<?xml version="1.0" encoding="iso-8859-1"?>
<!-- Generator: Adobe Illustrator 19.0.0, SVG Export Plug-In . SVG Version: 6.00 Build 0)  -->
<svg version="1.1" id="Layer_1" xmlns="http://www.w3.org/2000/svg" xmlns:xlink="http://www.w3.org/1999/xlink" x="0px" y="0px"
	 viewBox="0 0 286.054 286.054" style="enable-background:new 0 0 286.054 286.054;" xml:space="preserve">
<g>
	<path style="fill:#2394BC;" d="M205.592,134.088h-8.939v-8.939c0-4.943-3.996-8.939-8.939-8.939c-4.952,0-8.939,3.996-8.939,8.939
		v8.939h-8.939c-4.952,0-8.939,3.996-8.939,8.939s3.987,8.939,8.939,8.939h8.939v8.939c0,4.943,3.987,8.939,8.939,8.939
		c4.943,0,8.939-3.996,8.939-8.939v-8.939h8.939c4.943,0,8.939-3.996,8.939-8.939C214.531,138.101,210.536,134.088,205.592,134.088z
		 M131.406,100.074l-26.826,16.278H89.285c-9.771,0-8.841,7.974-8.841,17.78v17.78c0,9.833-0.93,17.78,8.841,17.78h15.125
		l26.996,16.359c5.9,3.629,11.71,0.697,11.71-6.499v-73.006C143.107,99.368,137.306,96.445,131.406,100.074z M143.027,0
		C64.031,0,0,64.031,0,143.027s64.031,143.027,143.027,143.027c78.987,0,143.027-64.031,143.027-143.027
		C286.045,64.04,222.014,0,143.027,0z M143.027,259.236c-64.183,0-116.209-52.026-116.209-116.209
		c0-64.192,52.026-116.209,116.209-116.209s116.209,52.017,116.209,116.209C259.236,207.21,207.21,259.236,143.027,259.236z"/>
</g>
<g>
</g>
<g>
</g>
<g>
</g>
<g>
</g>
<g>
</g>
<g>
</g>
<g>
</g>
<g>
</g>
<g>
</g>
<g>
</g>
<g>
</g>
<g>
</g>
<g>
</g>
<g>
</g>
<g>
</g>
</svg>
